<svg width="16" height="16" viewBox="0 0 16 16" fill="none" xmlns="http://www.w3.org/2000/svg">
<path d="M5.71418 1.14286H13.7142C14.0173 1.14286 14.308 1.26326 14.5223 1.47759C14.7366 1.69192 14.857 1.98261 14.857 2.28571V9.14286C14.857 9.44596 14.7366 9.73665 14.5223 9.95098C14.308 10.1653 14.0173 10.2857 13.7142 10.2857H7.9999V11.4286H10.2856V12.5714H7.9999V13.7143H11.9999C12.1514 13.7143 12.2968 13.6541 12.404 13.5469C12.5111 13.4398 12.5713 13.2944 12.5713 13.1429C12.5713 12.9913 12.5111 12.846 12.404 12.7388C12.2968 12.6316 12.1514 12.5714 11.9999 12.5714H11.4285V11.4286H13.7142C14.3204 11.4286 14.9018 11.1878 15.3304 10.7591C15.7591 10.3304 15.9999 9.74907 15.9999 9.14286V2.28571C15.9999 1.67951 15.7591 1.09812 15.3304 0.66947C14.9018 0.240816 14.3204 0 13.7142 0H5.71418C5.10797 0 4.52659 0.240816 4.09794 0.66947C3.66928 1.09812 3.42847 1.67951 3.42847 2.28571V4.57143H4.57132V2.28571C4.57132 1.98261 4.69173 1.69192 4.90606 1.47759C5.12039 1.26326 5.41108 1.14286 5.71418 1.14286Z" fill="#777777"/>
<path d="M2.85707 12.5718C2.70552 12.5718 2.56018 12.632 2.45301 12.7391C2.34585 12.8463 2.28564 12.9917 2.28564 13.1432C2.28564 13.2948 2.34585 13.4401 2.45301 13.5473C2.56018 13.6544 2.70552 13.7146 2.85707 13.7146H3.99993C4.15148 13.7146 4.29683 13.6544 4.40399 13.5473C4.51115 13.4401 4.57136 13.2948 4.57136 13.1432C4.57136 12.9917 4.51115 12.8463 4.40399 12.7391C4.29683 12.632 4.15148 12.5718 3.99993 12.5718H2.85707Z" fill="#777777"/>
<path d="M1.71429 5.71436C1.25963 5.71436 0.823594 5.89497 0.502103 6.21646C0.180612 6.53795 0 6.97398 0 7.42864V14.2858C0 14.7404 0.180612 15.1765 0.502103 15.498C0.823594 15.8195 1.25963 16.0001 1.71429 16.0001H5.14286C5.59751 16.0001 6.03355 15.8195 6.35504 15.498C6.67653 15.1765 6.85714 14.7404 6.85714 14.2858V7.42864C6.85714 6.97398 6.67653 6.53795 6.35504 6.21646C6.03355 5.89497 5.59751 5.71436 5.14286 5.71436H1.71429ZM1.71429 6.85721H5.14286C5.29441 6.85721 5.43975 6.91742 5.54692 7.02458C5.65408 7.13174 5.71429 7.27709 5.71429 7.42864V14.2858C5.71429 14.4373 5.65408 14.5827 5.54692 14.6898C5.43975 14.797 5.29441 14.8572 5.14286 14.8572H1.71429C1.56273 14.8572 1.41739 14.797 1.31022 14.6898C1.20306 14.5827 1.14286 14.4373 1.14286 14.2858V7.42864C1.14286 7.27709 1.20306 7.13174 1.31022 7.02458C1.41739 6.91742 1.56273 6.85721 1.71429 6.85721Z" fill="#777777"/>
</svg>
