<svg width="60" height="60" viewBox="0 0 60 60" fill="none" xmlns="http://www.w3.org/2000/svg">
<path d="M21.255 9C21.5653 8.12227 22.1402 7.36239 22.9005 6.82508C23.6608 6.28778 24.569 5.99951 25.5 6H34.5C35.431 5.99951 36.3392 6.28778 37.0995 6.82508C37.8598 7.36239 38.4347 8.12227 38.745 9H43.5C44.6935 9 45.8381 9.47411 46.682 10.318C47.5259 11.1619 48 12.3065 48 13.5V49.5C48 50.6935 47.5259 51.8381 46.682 52.682C45.8381 53.5259 44.6935 54 43.5 54H16.5C15.3065 54 14.1619 53.5259 13.318 52.682C12.4741 51.8381 12 50.6935 12 49.5V13.5C12 12.3065 12.4741 11.1619 13.318 10.318C14.1619 9.47411 15.3065 9 16.5 9H21.255ZM25.5 9C25.1022 9 24.7206 9.15804 24.4393 9.43934C24.158 9.72065 24 10.1022 24 10.5C24 10.8978 24.158 11.2794 24.4393 11.5607C24.7206 11.842 25.1022 12 25.5 12H34.5C34.8978 12 35.2794 11.842 35.5607 11.5607C35.842 11.2794 36 10.8978 36 10.5C36 10.1022 35.842 9.72065 35.5607 9.43934C35.2794 9.15804 34.8978 9 34.5 9H25.5ZM41.562 21.438C41.2807 21.1568 40.8992 20.9988 40.5015 20.9988C40.1038 20.9988 39.7223 21.1568 39.441 21.438L35.202 25.674L34.011 24.588C33.7151 24.3351 33.3324 24.2071 32.9439 24.2311C32.5553 24.2551 32.1913 24.4292 31.9288 24.7167C31.6663 25.0041 31.5258 25.3824 31.537 25.7715C31.5483 26.1607 31.7103 26.5302 31.989 26.802L34.239 28.857C34.5241 29.1166 34.8982 29.2564 35.2836 29.2474C35.6691 29.2385 36.0363 29.0815 36.309 28.809L41.559 23.559C41.8402 23.2777 41.9982 22.8962 41.9982 22.4985C41.9982 22.1008 41.8402 21.7193 41.559 21.438H41.562ZM41.562 38.562C41.8437 38.2807 42.0021 37.8991 42.0023 37.5011C42.0026 37.103 41.8448 36.7212 41.5635 36.4395C41.2822 36.1578 40.9006 35.9994 40.5026 35.9992C40.1045 35.9989 39.7227 36.1567 39.441 36.438L35.202 40.674L34.011 39.588C33.7151 39.3351 33.3324 39.2071 32.9439 39.2311C32.5553 39.2551 32.1913 39.4292 31.9288 39.7167C31.6663 40.0041 31.5258 40.3824 31.537 40.7715C31.5483 41.1607 31.7103 41.5302 31.989 41.802L34.239 43.857C34.5237 44.117 34.8976 44.2573 35.283 44.2489C35.6684 44.2405 36.0359 44.0841 36.309 43.812L41.559 38.562H41.562ZM19.5 24C19.1022 24 18.7206 24.158 18.4393 24.4393C18.158 24.7206 18 25.1022 18 25.5C18 25.8978 18.158 26.2794 18.4393 26.5607C18.7206 26.842 19.1022 27 19.5 27H27C27.3978 27 27.7794 26.842 28.0607 26.5607C28.342 26.2794 28.5 25.8978 28.5 25.5C28.5 25.1022 28.342 24.7206 28.0607 24.4393C27.7794 24.158 27.3978 24 27 24H19.5ZM18 40.5C18 40.8978 18.158 41.2794 18.4393 41.5607C18.7206 41.842 19.1022 42 19.5 42H27C27.3978 42 27.7794 41.842 28.0607 41.5607C28.342 41.2794 28.5 40.8978 28.5 40.5C28.5 40.1022 28.342 39.7206 28.0607 39.4393C27.7794 39.158 27.3978 39 27 39H19.5C19.1022 39 18.7206 39.158 18.4393 39.4393C18.158 39.7206 18 40.1022 18 40.5Z" fill="black"/>
</svg>
