<svg width="21" height="18" viewBox="0 0 21 18" fill="none" xmlns="http://www.w3.org/2000/svg">
<path d="M19.4412 6.51724H20V1.55172H18.8824V6.51724H19.4412ZM4.60106 13.4579C4.41553 13.208 4.22888 12.9917 4.07353 12.8223C3.91818 12.9917 3.73153 13.2086 3.546 13.4579C3.07547 14.0924 2.67647 14.8494 2.67647 15.5457C2.67647 16.3688 3.32191 17 4.07353 17C4.82515 17 5.47059 16.3688 5.47059 15.5457C5.47059 14.8494 5.07159 14.0919 4.60106 13.4579ZM1.55882 8.17241H1V10.3793H7.70588V8.17241H6.58824V7.06897C6.58824 6.62999 6.76486 6.20899 7.07926 5.89858C7.39366 5.58818 7.82008 5.41379 8.26471 5.41379V1H7.14706C5.81318 1 4.53393 1.52315 3.59073 2.45437C2.64753 3.38558 2.11765 4.64858 2.11765 5.96552V8.17241H1.55882ZM13.2941 1H10.5V7.06897H16.6471V1H13.2941Z" fill="#777777" stroke="#777777" stroke-width="2"/>
</svg>
