<svg width="19" height="19" viewBox="0 0 19 19" fill="none" xmlns="http://www.w3.org/2000/svg">
<path d="M13.6356 19C18.292 16.806 19.5179 14.7294 18.817 11.8932C18.2995 9.79889 16.6052 8.09498 16.4428 6.00471C15.719 7.10583 15.4166 7.89982 15.3357 9.05048C13.0338 6.69267 11.5126 3.42865 11.4226 0C11.4226 0 5.42691 2.94516 5.03349 7.39385C4.51734 6.47689 4.25751 5.02056 4.77366 4.0767C3.22526 5.02061 -5.83781 13.4 6.00126 19C3.7754 15.3767 5.42703 10.4878 9.29173 8.22988C9.03363 9.20077 9.48614 12.8219 11.1959 14.413C10.7222 11.7544 11.6467 10.6302 11.6467 10.6302C11.6467 10.6302 11.964 12.1194 13.1951 13.6237C14.3193 14.9974 15.0983 16.4554 13.6356 19V19Z" fill="#777777"/>
</svg>
