<svg width="18" height="25" viewBox="0 0 18 25" fill="none" xmlns="http://www.w3.org/2000/svg">
<path fill-rule="evenodd" clip-rule="evenodd" d="M1.42701 8.82023H5.75203L2.95741 2.04923C2.8651 1.82565 2.82768 1.58177 2.84848 1.33947C2.86929 1.09717 2.94768 0.864016 3.07663 0.660917C3.20558 0.457818 3.38105 0.291121 3.58731 0.175772C3.79357 0.0604228 4.02418 2.74469e-05 4.25845 5.81669e-07H11.337C11.6143 -0.000255469 11.8855 0.084029 12.1171 0.242395C12.3486 0.400761 12.5303 0.626237 12.6395 0.890843L16.8866 11.1811C16.979 11.4048 17.0164 11.6488 16.9955 11.8912C16.9747 12.1337 16.8961 12.3669 16.767 12.57C16.6379 12.7732 16.4623 12.9398 16.2558 13.0551C16.0494 13.1703 15.8186 13.2306 15.5842 13.2303H13.1293L16.898 22.9723C17.4643 24.435 15.7159 25.6713 14.613 24.5893L7.50044 17.6184L0.506799 11.4075C-0.492697 10.5196 0.110398 8.82023 1.42701 8.82023ZM9.1993 9.71107C9.29156 9.93454 9.329 10.1783 9.30826 10.4205C9.28752 10.6626 9.20925 10.8957 9.08047 11.0988C8.95169 11.3018 8.77641 11.4686 8.57034 11.584C8.36426 11.6995 8.13383 11.76 7.89967 11.7603H5.26078L9.39467 15.4325L11.8693 17.858L9.7217 12.3086C9.63537 12.0856 9.603 11.844 9.62745 11.605C9.6519 11.366 9.7324 11.1369 9.86192 10.9377C9.99144 10.7385 10.166 10.5753 10.3704 10.4625C10.5747 10.3496 10.8026 10.2905 11.0341 10.2903H13.4365L10.4041 2.94008H6.40609L9.1993 9.71107Z" fill="#777777"/>
</svg>
