<svg width="19" height="21" viewBox="0 0 19 21" fill="none" xmlns="http://www.w3.org/2000/svg">
<path d="M13.5 10C14.9587 10 16.3576 10.5795 17.3891 11.6109C18.4205 12.6424 19 14.0413 19 15.5C19 16.9587 18.4205 18.3576 17.3891 19.3891C16.3576 20.4205 14.9587 21 13.5 21C12.0413 21 10.6424 20.4205 9.61091 19.3891C8.57946 18.3576 8 16.9587 8 15.5C8 14.0413 8.57946 12.6424 9.61091 11.6109C10.6424 10.5795 12.0413 10 13.5 10V10ZM9.75 0C10.3467 0 10.919 0.237053 11.341 0.65901C11.7629 1.08097 12 1.65326 12 2.25V9.174C11.4788 9.29705 10.9749 9.48449 10.5 9.732V2.25C10.5 2.05109 10.421 1.86032 10.2803 1.71967C10.1397 1.57902 9.94891 1.5 9.75 1.5H2.25C2.05109 1.5 1.86032 1.57902 1.71967 1.71967C1.57902 1.86032 1.5 2.05109 1.5 2.25V17.75C1.5 18.164 1.836 18.5 2.25 18.5L7.733 18.501C8.02 19.052 8.384 19.557 8.81 20.001L2.25 20C1.65326 20 1.08097 19.7629 0.65901 19.341C0.237053 18.919 0 18.3467 0 17.75V2.25C0 1.65326 0.237053 1.08097 0.65901 0.65901C1.08097 0.237053 1.65326 0 2.25 0H9.75ZM13.5 12L13.41 12.007C13.3101 12.0253 13.2181 12.0735 13.1463 12.1453C13.0745 12.2171 13.0263 12.3091 13.008 12.409L13 12.5V15H10.498L10.408 15.008C10.3081 15.0263 10.2161 15.0745 10.1443 15.1463C10.0725 15.2181 10.0243 15.3101 10.006 15.41L9.998 15.5L10.006 15.59C10.0243 15.6899 10.0725 15.7819 10.1443 15.8537C10.2161 15.9255 10.3081 15.9737 10.408 15.992L10.498 16H13V18.503L13.008 18.593C13.0263 18.6929 13.0745 18.7849 13.1463 18.8567C13.2181 18.9285 13.3101 18.9767 13.41 18.995L13.5 19.003L13.59 18.995C13.6899 18.9767 13.7819 18.9285 13.8537 18.8567C13.9255 18.7849 13.9737 18.6929 13.992 18.593L14 18.503V16L16.504 16.001L16.594 15.993C16.6939 15.9747 16.7859 15.9265 16.8577 15.8547C16.9295 15.7829 16.9777 15.6909 16.996 15.591L17.004 15.501L16.996 15.411C16.9777 15.311 16.9293 15.2189 16.8573 15.1471C16.7853 15.0752 16.6931 15.0271 16.593 15.009L16.503 15.001H14V12.501L13.992 12.411C13.9739 12.3109 13.9258 12.2187 13.8539 12.1467C13.7821 12.0747 13.69 12.0263 13.59 12.008L13.5 12ZM4.749 15.504L7 15.499C7 16.016 7.06 16.519 7.174 16.999L4.751 17.004C4.55209 17.0043 4.36122 16.9255 4.22038 16.785C4.07954 16.6446 4.00027 16.4539 4 16.255C3.99973 16.0561 4.0785 15.8652 4.21896 15.7244C4.35943 15.5835 4.55009 15.5043 4.749 15.504V15.504Z" fill="#777777"/>
</svg>
