<svg width="32" height="32" viewBox="0 0 32 32" fill="none" xmlns="http://www.w3.org/2000/svg">
<path d="M16.0001 1.46582C7.97306 1.46582 1.46606 7.97282 1.46606 15.9998C1.46606 24.0268 7.97306 30.5338 16.0001 30.5338C24.0271 30.5338 30.5341 24.0268 30.5341 15.9998C30.5341 7.97282 24.0271 1.46582 16.0001 1.46582V1.46582ZM17.2551 23.8798V25.9268H15.2971V23.9028C12.0841 23.4628 10.6771 20.8228 10.6771 20.8228L12.6771 19.1498C12.6771 19.1498 13.9541 21.3728 16.2641 21.3728C17.5401 21.3728 18.5081 20.6898 18.5081 19.5228C18.5081 16.7948 11.1581 17.1258 11.1581 12.0648C11.1581 9.86482 12.8981 8.27982 15.2961 7.90482V5.85982H17.2541V7.90482C18.9261 8.12482 20.9061 9.00482 20.9061 10.8978V12.3498H18.3101V11.6458C18.3101 10.9198 17.3851 10.4358 16.3501 10.4358C15.0301 10.4358 14.0631 11.0958 14.0631 12.0198C14.0631 14.8138 21.4131 14.1318 21.4131 19.4348C21.4131 21.6148 19.7851 23.5048 17.2551 23.8798V23.8798Z" fill="#0077C5"/>
</svg>
