<svg width="19" height="21" viewBox="0 0 19 21" fill="none" xmlns="http://www.w3.org/2000/svg">
<path d="M15.414 6.414L9.585 0.586C9.56954 0.571631 9.55317 0.558271 9.536 0.546C9.52363 0.536453 9.51162 0.526446 9.5 0.516C9.43119 0.451071 9.35802 0.39093 9.281 0.336C9.25539 0.319482 9.22866 0.304779 9.201 0.292L9.153 0.268L9.103 0.239C9.049 0.208 8.994 0.176 8.937 0.152C8.73786 0.0724632 8.52711 0.0258544 8.313 0.0139999C8.293 0.0129999 8.273 0.00999997 8.254 0.00699997C8.22686 0.00280811 8.19946 0.000469395 8.172 0H2C1.46957 0 0.960859 0.210714 0.585786 0.585786C0.210714 0.960859 0 1.46957 0 2V18C0 18.5304 0.210714 19.0391 0.585786 19.4142C0.960859 19.7893 1.46957 20 2 20H8.81C8.38128 19.5537 8.0183 19.0486 7.732 18.5H2C1.86739 18.5 1.74021 18.4473 1.64645 18.3536C1.55268 18.2598 1.5 18.1326 1.5 18V2C1.5 1.86739 1.55268 1.74021 1.64645 1.64645C1.74021 1.55268 1.86739 1.5 2 1.5H8V6C8 6.53043 8.21071 7.03914 8.58579 7.41421C8.96086 7.78929 9.46957 8 10 8H14.5V9.076C15.023 9.157 15.526 9.3 16 9.498V7.828C15.9999 7.29761 15.7891 6.78899 15.414 6.414V6.414ZM9.5 2.621L13.378 6.5H10C9.86739 6.5 9.74021 6.44732 9.64645 6.35355C9.55268 6.25979 9.5 6.13261 9.5 6V2.621ZM6.75 15.5H7C7 16.016 7.06 16.518 7.174 17H6.75C6.55109 17 6.36032 16.921 6.21967 16.7803C6.07902 16.6397 6 16.4489 6 16.25C6 16.0511 6.07902 15.8603 6.21967 15.7197C6.36032 15.579 6.55109 15.5 6.75 15.5ZM7.174 14C7.299 13.472 7.488 12.97 7.732 12.5H6.75C6.55109 12.5 6.36032 12.579 6.21967 12.7197C6.07902 12.8603 6 13.0511 6 13.25C6 13.4489 6.07902 13.6397 6.21967 13.7803C6.36032 13.921 6.55109 14 6.75 14H7.174ZM8.81 11C9.42808 10.3554 10.1722 9.84479 10.996 9.5H6.75C6.55109 9.5 6.36032 9.57902 6.21967 9.71967C6.07902 9.86032 6 10.0511 6 10.25C6 10.4489 6.07902 10.6397 6.21967 10.7803C6.36032 10.921 6.55109 11 6.75 11H8.81V11ZM3.75 9.5C3.55109 9.5 3.36032 9.57902 3.21967 9.71967C3.07902 9.86032 3 10.0511 3 10.25C3 10.4489 3.07902 10.6397 3.21967 10.7803C3.36032 10.921 3.55109 11 3.75 11C3.94891 11 4.13968 10.921 4.28033 10.7803C4.42098 10.6397 4.5 10.4489 4.5 10.25C4.5 10.0511 4.42098 9.86032 4.28033 9.71967C4.13968 9.57902 3.94891 9.5 3.75 9.5V9.5ZM3 13.25C3 13.0511 3.07902 12.8603 3.21967 12.7197C3.36032 12.579 3.55109 12.5 3.75 12.5C3.94891 12.5 4.13968 12.579 4.28033 12.7197C4.42098 12.8603 4.5 13.0511 4.5 13.25C4.5 13.4489 4.42098 13.6397 4.28033 13.7803C4.13968 13.921 3.94891 14 3.75 14C3.55109 14 3.36032 13.921 3.21967 13.7803C3.07902 13.6397 3 13.4489 3 13.25ZM3 16.25C3 16.0511 3.07902 15.8603 3.21967 15.7197C3.36032 15.579 3.55109 15.5 3.75 15.5C3.94891 15.5 4.13968 15.579 4.28033 15.7197C4.42098 15.8603 4.5 16.0511 4.5 16.25C4.5 16.4489 4.42098 16.6397 4.28033 16.7803C4.13968 16.921 3.94891 17 3.75 17C3.55109 17 3.36032 16.921 3.21967 16.7803C3.07902 16.6397 3 16.4489 3 16.25ZM19 15.5C19 14.0413 18.4205 12.6424 17.3891 11.6109C16.3576 10.5795 14.9587 10 13.5 10C12.0413 10 10.6424 10.5795 9.61091 11.6109C8.57946 12.6424 8 14.0413 8 15.5C8 16.9587 8.57946 18.3576 9.61091 19.3891C10.6424 20.4205 12.0413 21 13.5 21C14.9587 21 16.3576 20.4205 17.3891 19.3891C18.4205 18.3576 19 16.9587 19 15.5ZM13.22 15.918C13.1409 15.8657 13.0782 15.7919 13.0395 15.7053C13.0007 15.6187 12.9873 15.5229 13.001 15.429L13 11.5C13 11.3674 13.0527 11.2402 13.1464 11.1464C13.2402 11.0527 13.3674 11 13.5 11C13.6326 11 13.7598 11.0527 13.8536 11.1464C13.9473 11.2402 14 11.3674 14 11.5L14.001 15H16.497C16.6296 15 16.7568 15.0527 16.8506 15.1464C16.9443 15.2402 16.997 15.3674 16.997 15.5C16.997 15.6326 16.9443 15.7598 16.8506 15.8536C16.7568 15.9473 16.6296 16 16.497 16H13.56C13.4405 16.0139 13.32 15.9848 13.22 15.918V15.918Z" fill="#777777"/>
</svg>
